<svg width="189" height="5045" viewBox="0 0 189 5045" fill="none" xmlns="http://www.w3.org/2000/svg">
<path d="M127.086 47.153C127.639 36.4462 124.736 25.6057 118.232 16.8856C111.735 8.16672 102.278 2.30056 91.7672 0.548824C81.2568 -1.20291 70.4079 1.27882 61.4341 7.41924C52.4537 13.5586 46.192 22.8717 43.2426 33.1791C43.2426 33.1791 43.2426 33.1791 43.2426 33.1791C19.3268 117.609 9.54827 207.036 10.1096 294.13C10.9305 416.498 26.6279 531.372 33.5632 643.594C40.0776 740.157 45.4692 836.17 44.5216 934.102C40.6888 1141.68 82.1683 1341.24 96.6524 1539.99C108.759 1706.75 94.2422 1874.29 63.6941 2035.02C48.3875 2118.71 38.8181 2203.35 37.3568 2287.83C33.0486 2543.09 88.2869 2789.55 66.0506 3037.28C63.2145 3070.55 58.7945 3103.23 52.945 3136.14C13.0619 3352.61 -10.9749 3580.8 4.991 3795.25C15.649 3944.14 34.1775 4088.63 36.4782 4235.76L36.6054 4234.31C35.1435 4337.88 43.1314 4440.32 52.5605 4540.77C60.2985 4624.71 70.0099 4707.45 76.0384 4790.32C82.1756 4873.24 84.3707 4956.22 80.9354 5039.74C80.8934 5040.81 81.2933 5041.87 82.0106 5042.7C82.73 5043.52 83.7079 5044.05 84.7658 5044.15C85.8237 5044.26 86.8856 5043.94 87.7545 5043.27C88.6212 5042.6 89.2239 5041.64 89.3932 5040.59C89.3932 5040.59 89.3932 5040.59 89.3932 5040.59C102.737 4957.72 110.126 4873.88 113.681 4789.77C117.349 4705.74 117.508 4621.77 120.533 4538.85C123.98 4439.47 134.951 4341.69 153.723 4246.02C153.726 4245.73 153.855 4244.86 153.85 4244.57C179.294 4091.47 185.44 3934.35 174.578 3783.41C158.505 3566.03 100.736 3359.06 117.384 3144.19C119.919 3109.99 122.435 3076.36 125.336 3042.34C147.992 2790.5 160.466 2535.52 164.837 2290.07C166.256 2208.43 165.337 2127.25 166.635 2045.31C170.412 1872.48 142.598 1704.44 130.57 1537.62C115.858 1338.2 127.94 1137.03 165.807 946.23C185.122 843.793 193.3 737.552 186.23 633.496C178.558 512.278 154.968 396.368 139.681 285.467C128.702 206.003 123.103 127.702 127.086 47.153Z" fill="#321852"/>
</svg>
